<svg width="3646" height="3664" viewBox="0 0 3646 3664" fill="none" xmlns="http://www.w3.org/2000/svg">
<circle cx="0.5" cy="0.5" r="0.5" fill="#D9D9D9"/>
<circle cx="1823" cy="1824" r="1823" fill="#5A56FF"/>
<circle cx="1823.5" cy="1823.5" r="970.5" fill="white"/>
<path d="M1463 2544H2184V3664H1463V2544Z" fill="white"/>
<path d="M1706 1581.5C1706 1533.54 1691.78 1486.65 1665.13 1446.77C1638.49 1406.9 1600.61 1375.81 1556.3 1357.46C1511.99 1339.1 1463.23 1334.3 1416.19 1343.66C1369.15 1353.02 1325.94 1376.11 1292.03 1410.03C1258.11 1443.94 1235.02 1487.15 1225.66 1534.19C1216.3 1581.23 1221.1 1629.99 1239.46 1674.3C1257.81 1718.61 1288.9 1756.49 1328.77 1783.13C1368.65 1809.78 1415.54 1824 1463.5 1824V1581.5H1706Z" fill="#5A56FF"/>
<path d="M2184.5 1824C2232.46 1824 2279.35 1809.78 2319.23 1783.13C2359.1 1756.49 2390.19 1718.61 2408.54 1674.3C2426.9 1629.99 2431.7 1581.23 2422.34 1534.19C2412.98 1487.15 2389.89 1443.94 2355.97 1410.03C2322.06 1376.11 2278.85 1353.02 2231.81 1343.66C2184.77 1334.3 2136.01 1339.1 2091.7 1357.46C2047.39 1375.81 2009.51 1406.9 1982.87 1446.77C1956.22 1486.65 1942 1533.54 1942 1581.5L2184.5 1581.5L2184.5 1824Z" fill="#5A56FF"/>
<path d="M2143 2164C2143 2254.17 2107.18 2340.65 2043.42 2404.42C1979.65 2468.18 1893.17 2504 1803 2504C1712.83 2504 1626.35 2468.18 1562.58 2404.42C1498.82 2340.65 1463 2254.17 1463 2164L1803 2164H2143Z" fill="#5A56FF"/>
<path d="M1308 669.5C1308 583.62 1377.62 514 1463.5 514C1549.38 514 1619 583.62 1619 669.5V1192H1308V669.5Z" fill="white"/>
<path d="M1753 816.5C1753 730.62 1822.62 661 1908.5 661C1994.38 661 2064 730.62 2064 816.5V1339H1753V816.5Z" fill="white"/>
<path d="M2116 669.5C2116 583.62 2185.62 514 2271.5 514C2357.38 514 2427 583.62 2427 669.5V1192H2116V669.5Z" fill="white"/>
<circle cx="1908.5" cy="392.5" r="155.5" fill="white"/>
<path d="M2184 2802H2232C2287.23 2802 2332 2846.77 2332 2902V3306C2332 3361.23 2287.23 3406 2232 3406H2184V2802Z" fill="white"/>
<path d="M1315 2902C1315 2846.77 1359.77 2802 1415 2802H1463V3406H1415C1359.77 3406 1315 3361.23 1315 3306V2902Z" fill="white"/>
</svg>
